<svg xmlns="http://www.w3.org/2000/svg" viewBox="0 0 128 128" role="img" aria-label="icloudseal">
  <defs>
    <linearGradient id="sky" x1="18" y1="8" x2="110" y2="120" gradientUnits="userSpaceOnUse">
      <stop offset="0" stop-color="#38BDF8"/>
      <stop offset="1" stop-color="#0369A1"/>
    </linearGradient>
  </defs>
  <circle cx="64" cy="64" r="60" fill="url(#sky)"/>
  <path fill="#F0F9FF" d="M86 52c0-12.7-10.3-23-23-23-10.4 0-19.2 6.9-22.1 16.4C33.7 47.2 28 54.6 28 63.5 28 74.3 36.7 83 47.5 83H86c9.4 0 17-7.6 17-17 0-8.7-6.5-15.8-14.8-16.9-.7-4.2-2-6.1-2.2 2.9z"/>
  <circle cx="96" cy="96" r="20" fill="#0C4A6E"/>
  <rect x="88.5" y="92.5" width="15" height="12.5" rx="2.4" fill="#F0F9FF"/>
  <path d="M91.6 92.5v-4.2a4.4 4.4 0 0 1 8.8 0v4.2" fill="none" stroke="#F0F9FF" stroke-width="2.4" stroke-linecap="round"/>
</svg>
